<svg width="1200" height="800" viewBox="0 0 1200 800" fill="none" xmlns="http://www.w3.org/2000/svg">
  <defs>
    <linearGradient id="bg" x1="140" y1="110" x2="1080" y2="690" gradientUnits="userSpaceOnUse">
      <stop stop-color="#F7F9FC"/>
      <stop offset="1" stop-color="#EAF0F8"/>
    </linearGradient>
    <linearGradient id="panel" x1="420" y1="160" x2="830" y2="580" gradientUnits="userSpaceOnUse">
      <stop stop-color="#122A4A"/>
      <stop offset="1" stop-color="#1E3B62"/>
    </linearGradient>
    <linearGradient id="soft" x1="260" y1="240" x2="980" y2="580" gradientUnits="userSpaceOnUse">
      <stop stop-color="#F1F5FB"/>
      <stop offset="1" stop-color="#E7EEF9"/>
    </linearGradient>
    <filter id="shadow" x="-20%" y="-20%" width="140%" height="140%">
      <feDropShadow dx="0" dy="16" stdDeviation="18" flood-color="#1E355B" flood-opacity="0.12"/>
    </filter>
  </defs>

  <rect width="1200" height="800" fill="url(#bg)"/>

  <g opacity="0.7">
    <path d="M170 182H1030" stroke="#D9E2F1" stroke-width="2" stroke-dasharray="10 16"/>
    <path d="M170 618H1030" stroke="#D9E2F1" stroke-width="2" stroke-dasharray="10 16"/>
    <path d="M220 140V660" stroke="#D9E2F1" stroke-width="2" stroke-dasharray="10 16"/>
    <path d="M980 140V660" stroke="#D9E2F1" stroke-width="2" stroke-dasharray="10 16"/>
  </g>

  <g filter="url(#shadow)">
    <rect x="340" y="128" width="520" height="544" rx="34" fill="url(#panel)"/>
  </g>

  <circle cx="600" cy="400" r="118" fill="#F1F6FC" fill-opacity="0.12"/>
  <circle cx="600" cy="400" r="82" fill="#F6F9FC" fill-opacity="0.12" stroke="#E2ECF8" stroke-width="1.4"/>

  <g>
    <rect x="565" y="368" width="70" height="56" rx="12" fill="#F0F4FB"/>
    <path d="M593 382H604.4C611.8 382 617.9 388.1 617.9 395.5V414.7C617.9 422.1 611.8 428.2 604.4 428.2H593C585.6 428.2 579.5 422.1 579.5 414.7V395.5C579.5 388.1 585.6 382 593 382Z" fill="#163D68"/>
    <path d="M587 400.5H611" stroke="#F0F4FB" stroke-width="2.5" stroke-linecap="round"/>
    <path d="M587 407.5H605" stroke="#F0F4FB" stroke-width="2.5" stroke-linecap="round"/>
  </g>

  <g font-family="Segoe UI, Arial, sans-serif" font-weight="600" fill="#F3F7FE">
    <text x="600" y="520" text-anchor="middle" font-size="30">Taxation &amp; Compliance</text>
  </g>

  <g font-family="Segoe UI, Arial, sans-serif" fill="#E5ECF6" font-size="20" font-weight="600">
    <text x="600" y="585" text-anchor="middle">Strategic tax governance</text>
  </g>

  <g>
    <g>
      <line x1="600" y1="240" x2="600" y2="324" stroke="#D9E7FF" stroke-width="2"/>
      <circle cx="600" cy="216" r="22" fill="#F5F9FF"/>
      <text x="600" y="222" text-anchor="middle" font-size="18" font-weight="700" fill="#173A63" font-family="Segoe UI, Arial, sans-serif">Tax</text>
      <text x="600" y="170" text-anchor="middle" font-size="18" font-weight="600" fill="#EFF4FD" font-family="Segoe UI, Arial, sans-serif">Direct Tax</text>
    </g>

    <g>
      <line x1="715" y1="289" x2="805" y2="220" stroke="#D9E7FF" stroke-width="2"/>
      <circle cx="836" cy="192" r="21" fill="#F5F9FF"/>
      <text x="836" y="199" text-anchor="middle" font-size="16" font-weight="700" fill="#173A63" font-family="Segoe UI, Arial, sans-serif">GST</text>
      <text x="865" y="149" text-anchor="start" font-size="18" font-weight="600" fill="#EFF4FD" font-family="Segoe UI, Arial, sans-serif">GST &amp; Indirect Tax</text>
    </g>

    <g>
      <line x1="770" y1="468" x2="875" y2="540" stroke="#D9E7FF" stroke-width="2"/>
      <circle cx="908" cy="567" r="22" fill="#F5F9FF"/>
      <text x="908" y="573" text-anchor="middle" font-size="16" font-weight="700" fill="#173A63" font-family="Segoe UI, Arial, sans-serif">Deals</text>
      <text x="938" y="610" text-anchor="start" font-size="18" font-weight="600" fill="#EFF4FD" font-family="Segoe UI, Arial, sans-serif">Transactions</text>
    </g>

    <g>
      <line x1="480" y1="470" x2="385" y2="547" stroke="#D9E7FF" stroke-width="2"/>
      <circle cx="354" cy="574" r="22" fill="#F5F9FF"/>
      <text x="354" y="580" text-anchor="middle" font-size="15" font-weight="700" fill="#173A63" font-family="Segoe UI, Arial, sans-serif">Intl</text>
      <text x="155" y="612" text-anchor="start" font-size="18" font-weight="600" fill="#EFF4FD" font-family="Segoe UI, Arial, sans-serif">International Tax</text>
    </g>

    <g>
      <line x1="520" y1="516" x2="472" y2="620" stroke="#D9E7FF" stroke-width="2"/>
      <circle cx="458" cy="643" r="20" fill="#F5F9FF"/>
      <text x="458" y="650" text-anchor="middle" font-size="14" font-weight="700" fill="#173A63" font-family="Segoe UI, Arial, sans-serif">Ops</text>
      <text x="210" y="685" text-anchor="start" font-size="18" font-weight="600" fill="#EFF4FD" font-family="Segoe UI, Arial, sans-serif">Compliance</text>
    </g>

    <g>
      <line x1="680" y1="516" x2="718" y2="619" stroke="#D9E7FF" stroke-width="2"/>
      <circle cx="738" cy="648" r="20" fill="#F5F9FF"/>
      <text x="738" y="655" text-anchor="middle" font-size="13" font-weight="700" fill="#173A63" font-family="Segoe UI, Arial, sans-serif">Flow</text>
      <text x="768" y="686" text-anchor="start" font-size="18" font-weight="600" fill="#EFF4FD" font-family="Segoe UI, Arial, sans-serif">Cross-Border</text>
    </g>

    <g>
      <line x1="846" y1="368" x2="924" y2="327" stroke="#D9E7FF" stroke-width="2"/>
      <circle cx="953" cy="305" r="20" fill="#F5F9FF"/>
      <text x="953" y="312" text-anchor="middle" font-size="13" font-weight="700" fill="#173A63" font-family="Segoe UI, Arial, sans-serif">Rep</text>
      <text x="976" y="260" text-anchor="start" font-size="18" font-weight="600" fill="#EFF4FD" font-family="Segoe UI, Arial, sans-serif">Reporting</text>
    </g>

    <g>
      <line x1="352" y1="298" x2="274" y2="267" stroke="#D9E7FF" stroke-width="2"/>
      <circle cx="244" cy="246" r="20" fill="#F5F9FF"/>
      <text x="244" y="252" text-anchor="middle" font-size="13" font-weight="700" fill="#173A63" font-family="Segoe UI, Arial, sans-serif">Doc</text>
      <text x="82" y="211" text-anchor="start" font-size="18" font-weight="600" fill="#EFF4FD" font-family="Segoe UI, Arial, sans-serif">Representation</text>
    </g>
  </g>

  <g opacity="0.9">
    <rect x="626" y="368" width="166" height="9" rx="4.5" fill="#DDEAFB"/>
    <rect x="626" y="387" width="132" height="9" rx="4.5" fill="#DDEAFB"/>
    <rect x="626" y="406" width="147" height="9" rx="4.5" fill="#DDEAFB"/>
  </g>
</svg>
